<mxfile host="app.diagrams.net" agent="Mozilla/5.0 (Windows NT 10.0; Win64; x64) AppleWebKit/537.36 (KHTML, like Gecko) Chrome/128.0.0.0 Safari/537.36" version="24.7.16">
  <diagram name="Page-1" id="SaGMsmlhRaV_A1o55CrC">
    <mxGraphModel dx="1050" dy="557" grid="1" gridSize="10" guides="1" tooltips="1" connect="1" arrows="1" fold="1" page="1" pageScale="1" pageWidth="850" pageHeight="1100" math="0" shadow="0">
      <root>
        <mxCell id="0" />
        <mxCell id="1" parent="0" />
        <mxCell id="qNYDKGZyeqneloQv9wIE-1" value="Actor" style="shape=umlActor;verticalLabelPosition=bottom;verticalAlign=top;html=1;" vertex="1" parent="1">
          <mxGeometry x="335" y="160" width="30" height="60" as="geometry" />
        </mxCell>
        <mxCell id="qNYDKGZyeqneloQv9wIE-2" value="Service" style="html=1;whiteSpace=wrap;" vertex="1" parent="1">
          <mxGeometry x="655" y="170" width="110" height="50" as="geometry" />
        </mxCell>
        <mxCell id="qNYDKGZyeqneloQv9wIE-3" value="Controller" style="html=1;whiteSpace=wrap;" vertex="1" parent="1">
          <mxGeometry x="445" y="170" width="110" height="50" as="geometry" />
        </mxCell>
        <mxCell id="qNYDKGZyeqneloQv9wIE-4" value="Database" style="html=1;whiteSpace=wrap;" vertex="1" parent="1">
          <mxGeometry x="875" y="165" width="110" height="50" as="geometry" />
        </mxCell>
        <mxCell id="qNYDKGZyeqneloQv9wIE-5" value="" style="endArrow=none;dashed=1;html=1;dashPattern=1 3;strokeWidth=2;rounded=0;" edge="1" parent="1">
          <mxGeometry width="50" height="50" relative="1" as="geometry">
            <mxPoint x="355" y="680" as="sourcePoint" />
            <mxPoint x="355" y="250" as="targetPoint" />
            <Array as="points">
              <mxPoint x="355" y="370" />
            </Array>
          </mxGeometry>
        </mxCell>
        <mxCell id="qNYDKGZyeqneloQv9wIE-6" value="" style="endArrow=none;dashed=1;html=1;dashPattern=1 3;strokeWidth=2;rounded=0;" edge="1" parent="1">
          <mxGeometry width="50" height="50" relative="1" as="geometry">
            <mxPoint x="495" y="670" as="sourcePoint" />
            <mxPoint x="495" y="250" as="targetPoint" />
          </mxGeometry>
        </mxCell>
        <mxCell id="qNYDKGZyeqneloQv9wIE-7" value="" style="endArrow=none;dashed=1;html=1;dashPattern=1 3;strokeWidth=2;rounded=0;" edge="1" parent="1">
          <mxGeometry width="50" height="50" relative="1" as="geometry">
            <mxPoint x="705" y="670" as="sourcePoint" />
            <mxPoint x="705" y="240" as="targetPoint" />
          </mxGeometry>
        </mxCell>
        <mxCell id="qNYDKGZyeqneloQv9wIE-8" value="" style="endArrow=none;dashed=1;html=1;dashPattern=1 3;strokeWidth=2;rounded=0;" edge="1" parent="1">
          <mxGeometry width="50" height="50" relative="1" as="geometry">
            <mxPoint x="925" y="670" as="sourcePoint" />
            <mxPoint x="925" y="230" as="targetPoint" />
          </mxGeometry>
        </mxCell>
        <mxCell id="qNYDKGZyeqneloQv9wIE-9" value="" style="endArrow=classic;html=1;rounded=0;" edge="1" parent="1">
          <mxGeometry width="50" height="50" relative="1" as="geometry">
            <mxPoint x="365" y="260" as="sourcePoint" />
            <mxPoint x="485" y="260" as="targetPoint" />
          </mxGeometry>
        </mxCell>
        <mxCell id="qNYDKGZyeqneloQv9wIE-10" value="login request" style="text;html=1;align=center;verticalAlign=middle;resizable=0;points=[];autosize=1;strokeColor=none;fillColor=none;" vertex="1" parent="1">
          <mxGeometry x="380" y="228" width="90" height="30" as="geometry" />
        </mxCell>
        <mxCell id="qNYDKGZyeqneloQv9wIE-11" value="" style="endArrow=classic;html=1;rounded=0;entryX=0.908;entryY=1.067;entryDx=0;entryDy=0;entryPerimeter=0;" edge="1" parent="1" target="qNYDKGZyeqneloQv9wIE-12">
          <mxGeometry width="50" height="50" relative="1" as="geometry">
            <mxPoint x="605" y="370" as="sourcePoint" />
            <mxPoint x="705" y="380" as="targetPoint" />
            <Array as="points">
              <mxPoint x="665" y="370" />
            </Array>
          </mxGeometry>
        </mxCell>
        <mxCell id="qNYDKGZyeqneloQv9wIE-12" value="call login function" style="text;html=1;align=center;verticalAlign=middle;resizable=0;points=[];autosize=1;strokeColor=none;fillColor=none;" vertex="1" parent="1">
          <mxGeometry x="595" y="340" width="120" height="30" as="geometry" />
        </mxCell>
        <mxCell id="qNYDKGZyeqneloQv9wIE-13" value="" style="endArrow=classic;html=1;rounded=0;" edge="1" parent="1">
          <mxGeometry width="50" height="50" relative="1" as="geometry">
            <mxPoint x="715" y="380" as="sourcePoint" />
            <mxPoint x="915" y="380" as="targetPoint" />
          </mxGeometry>
        </mxCell>
        <mxCell id="qNYDKGZyeqneloQv9wIE-14" value="find user" style="text;html=1;align=center;verticalAlign=middle;resizable=0;points=[];autosize=1;strokeColor=none;fillColor=none;" vertex="1" parent="1">
          <mxGeometry x="765" y="350" width="70" height="30" as="geometry" />
        </mxCell>
        <mxCell id="qNYDKGZyeqneloQv9wIE-15" value="" style="html=1;verticalAlign=bottom;endArrow=open;dashed=1;endSize=8;curved=0;rounded=0;" edge="1" parent="1">
          <mxGeometry relative="1" as="geometry">
            <mxPoint x="925" y="420" as="sourcePoint" />
            <mxPoint x="715" y="420" as="targetPoint" />
          </mxGeometry>
        </mxCell>
        <mxCell id="qNYDKGZyeqneloQv9wIE-16" value="not found" style="edgeLabel;html=1;align=center;verticalAlign=middle;resizable=0;points=[];" vertex="1" connectable="0" parent="qNYDKGZyeqneloQv9wIE-15">
          <mxGeometry x="0.0095" y="-6" relative="1" as="geometry">
            <mxPoint as="offset" />
          </mxGeometry>
        </mxCell>
        <mxCell id="qNYDKGZyeqneloQv9wIE-17" value="not found" style="html=1;verticalAlign=bottom;endArrow=open;dashed=1;endSize=8;curved=0;rounded=0;" edge="1" parent="1">
          <mxGeometry x="-0.0769" relative="1" as="geometry">
            <mxPoint x="485" y="450" as="sourcePoint" />
            <mxPoint x="355" y="450" as="targetPoint" />
            <mxPoint as="offset" />
          </mxGeometry>
        </mxCell>
        <mxCell id="qNYDKGZyeqneloQv9wIE-18" value="not found" style="html=1;verticalAlign=bottom;endArrow=open;dashed=1;endSize=8;curved=0;rounded=0;" edge="1" parent="1">
          <mxGeometry relative="1" as="geometry">
            <mxPoint x="705" y="430" as="sourcePoint" />
            <mxPoint x="495" y="430" as="targetPoint" />
          </mxGeometry>
        </mxCell>
        <mxCell id="qNYDKGZyeqneloQv9wIE-19" value="alternative" style="shape=umlFrame;whiteSpace=wrap;html=1;pointerEvents=0;" vertex="1" parent="1">
          <mxGeometry x="265" y="400" width="720" height="270" as="geometry" />
        </mxCell>
        <mxCell id="qNYDKGZyeqneloQv9wIE-20" value="" style="endArrow=none;dashed=1;html=1;rounded=0;exitX=0.003;exitY=0.326;exitDx=0;exitDy=0;exitPerimeter=0;entryX=0.997;entryY=0.33;entryDx=0;entryDy=0;entryPerimeter=0;" edge="1" parent="1" source="qNYDKGZyeqneloQv9wIE-19" target="qNYDKGZyeqneloQv9wIE-19">
          <mxGeometry width="50" height="50" relative="1" as="geometry">
            <mxPoint x="605" y="430" as="sourcePoint" />
            <mxPoint x="655" y="380" as="targetPoint" />
          </mxGeometry>
        </mxCell>
        <mxCell id="qNYDKGZyeqneloQv9wIE-21" value="user not found" style="text;html=1;align=center;verticalAlign=middle;resizable=0;points=[];autosize=1;strokeColor=none;fillColor=none;" vertex="1" parent="1">
          <mxGeometry x="255" y="440" width="100" height="30" as="geometry" />
        </mxCell>
        <mxCell id="qNYDKGZyeqneloQv9wIE-22" value="user found" style="text;html=1;align=center;verticalAlign=middle;resizable=0;points=[];autosize=1;strokeColor=none;fillColor=none;" vertex="1" parent="1">
          <mxGeometry x="265" y="490" width="80" height="30" as="geometry" />
        </mxCell>
        <mxCell id="qNYDKGZyeqneloQv9wIE-23" value="found user" style="html=1;verticalAlign=bottom;endArrow=open;dashed=1;endSize=8;curved=0;rounded=0;" edge="1" parent="1">
          <mxGeometry relative="1" as="geometry">
            <mxPoint x="925" y="512.5" as="sourcePoint" />
            <mxPoint x="705" y="513" as="targetPoint" />
          </mxGeometry>
        </mxCell>
        <mxCell id="qNYDKGZyeqneloQv9wIE-24" value="invalid user" style="html=1;verticalAlign=bottom;endArrow=open;dashed=1;endSize=8;curved=0;rounded=0;" edge="1" parent="1">
          <mxGeometry relative="1" as="geometry">
            <mxPoint x="695" y="540" as="sourcePoint" />
            <mxPoint x="495" y="540" as="targetPoint" />
          </mxGeometry>
        </mxCell>
        <mxCell id="qNYDKGZyeqneloQv9wIE-25" value="login fail" style="html=1;verticalAlign=bottom;endArrow=open;dashed=1;endSize=8;curved=0;rounded=0;" edge="1" parent="1">
          <mxGeometry relative="1" as="geometry">
            <mxPoint x="495" y="560" as="sourcePoint" />
            <mxPoint x="355" y="560" as="targetPoint" />
            <mxPoint as="offset" />
          </mxGeometry>
        </mxCell>
        <mxCell id="qNYDKGZyeqneloQv9wIE-26" value="valid user&amp;nbsp;" style="html=1;verticalAlign=bottom;endArrow=open;dashed=1;endSize=8;curved=0;rounded=0;" edge="1" parent="1">
          <mxGeometry relative="1" as="geometry">
            <mxPoint x="700" y="610" as="sourcePoint" />
            <mxPoint x="490" y="610" as="targetPoint" />
          </mxGeometry>
        </mxCell>
        <mxCell id="qNYDKGZyeqneloQv9wIE-27" value="login susscessfull&amp;nbsp;" style="html=1;verticalAlign=bottom;endArrow=open;dashed=1;endSize=8;curved=0;rounded=0;" edge="1" parent="1">
          <mxGeometry relative="1" as="geometry">
            <mxPoint x="495" y="630" as="sourcePoint" />
            <mxPoint x="355" y="630" as="targetPoint" />
            <Array as="points">
              <mxPoint x="435" y="630" />
            </Array>
            <mxPoint as="offset" />
          </mxGeometry>
        </mxCell>
        <mxCell id="qNYDKGZyeqneloQv9wIE-28" value="alternative" style="shape=umlFrame;whiteSpace=wrap;html=1;pointerEvents=0;" vertex="1" parent="1">
          <mxGeometry x="275" y="520" width="480" height="128" as="geometry" />
        </mxCell>
        <mxCell id="qNYDKGZyeqneloQv9wIE-29" value="" style="endArrow=none;dashed=1;html=1;rounded=0;" edge="1" parent="1">
          <mxGeometry width="50" height="50" relative="1" as="geometry">
            <mxPoint x="275" y="584" as="sourcePoint" />
            <mxPoint x="754" y="580" as="targetPoint" />
            <Array as="points">
              <mxPoint x="495" y="584" />
            </Array>
          </mxGeometry>
        </mxCell>
        <mxCell id="qNYDKGZyeqneloQv9wIE-30" value="invalid user" style="text;html=1;align=center;verticalAlign=middle;resizable=0;points=[];autosize=1;strokeColor=none;fillColor=none;" vertex="1" parent="1">
          <mxGeometry x="275" y="550" width="80" height="30" as="geometry" />
        </mxCell>
        <mxCell id="qNYDKGZyeqneloQv9wIE-31" value="valid user" style="text;html=1;align=center;verticalAlign=middle;resizable=0;points=[];autosize=1;strokeColor=none;fillColor=none;" vertex="1" parent="1">
          <mxGeometry x="275" y="598" width="70" height="30" as="geometry" />
        </mxCell>
        <mxCell id="qNYDKGZyeqneloQv9wIE-32" value="" style="endArrow=none;dashed=1;html=1;dashPattern=1 3;strokeWidth=2;rounded=0;" edge="1" parent="1">
          <mxGeometry width="50" height="50" relative="1" as="geometry">
            <mxPoint x="605" y="390" as="sourcePoint" />
            <mxPoint x="605" y="250" as="targetPoint" />
          </mxGeometry>
        </mxCell>
        <mxCell id="qNYDKGZyeqneloQv9wIE-33" value="" style="endArrow=classic;html=1;rounded=0;" edge="1" parent="1">
          <mxGeometry width="50" height="50" relative="1" as="geometry">
            <mxPoint x="495" y="270" as="sourcePoint" />
            <mxPoint x="585" y="270" as="targetPoint" />
          </mxGeometry>
        </mxCell>
        <mxCell id="qNYDKGZyeqneloQv9wIE-34" value="check input" style="text;html=1;align=center;verticalAlign=middle;resizable=0;points=[];autosize=1;strokeColor=none;fillColor=none;" vertex="1" parent="1">
          <mxGeometry x="505" y="240" width="80" height="30" as="geometry" />
        </mxCell>
        <mxCell id="qNYDKGZyeqneloQv9wIE-35" value="Uncorrect /not input" style="html=1;verticalAlign=bottom;endArrow=open;dashed=1;endSize=8;curved=0;rounded=0;" edge="1" parent="1">
          <mxGeometry relative="1" as="geometry">
            <mxPoint x="595" y="300" as="sourcePoint" />
            <mxPoint x="495" y="300" as="targetPoint" />
            <mxPoint as="offset" />
          </mxGeometry>
        </mxCell>
        <mxCell id="qNYDKGZyeqneloQv9wIE-36" value="please fill in" style="html=1;verticalAlign=bottom;endArrow=open;dashed=1;endSize=8;curved=0;rounded=0;" edge="1" parent="1">
          <mxGeometry relative="1" as="geometry">
            <mxPoint x="485" y="310" as="sourcePoint" />
            <mxPoint x="355" y="310" as="targetPoint" />
            <mxPoint as="offset" />
          </mxGeometry>
        </mxCell>
        <mxCell id="qNYDKGZyeqneloQv9wIE-37" value="alternative&lt;div&gt;&lt;br&gt;&lt;/div&gt;" style="shape=umlFrame;whiteSpace=wrap;html=1;pointerEvents=0;" vertex="1" parent="1">
          <mxGeometry x="265" y="280" width="720" height="110" as="geometry" />
        </mxCell>
        <mxCell id="qNYDKGZyeqneloQv9wIE-38" value="" style="endArrow=none;dashed=1;html=1;rounded=0;exitX=-0.003;exitY=0.545;exitDx=0;exitDy=0;exitPerimeter=0;entryX=0.999;entryY=0.518;entryDx=0;entryDy=0;entryPerimeter=0;" edge="1" parent="1" source="qNYDKGZyeqneloQv9wIE-37" target="qNYDKGZyeqneloQv9wIE-37">
          <mxGeometry width="50" height="50" relative="1" as="geometry">
            <mxPoint x="595" y="430" as="sourcePoint" />
            <mxPoint x="645" y="380" as="targetPoint" />
          </mxGeometry>
        </mxCell>
        <mxCell id="qNYDKGZyeqneloQv9wIE-39" value="uncorrect input" style="text;html=1;align=center;verticalAlign=middle;resizable=0;points=[];autosize=1;strokeColor=none;fillColor=none;" vertex="1" parent="1">
          <mxGeometry x="255" y="308" width="100" height="30" as="geometry" />
        </mxCell>
        <mxCell id="qNYDKGZyeqneloQv9wIE-40" value="correct input" style="text;html=1;align=center;verticalAlign=middle;resizable=0;points=[];autosize=1;strokeColor=none;fillColor=none;" vertex="1" parent="1">
          <mxGeometry x="260" y="348" width="90" height="30" as="geometry" />
        </mxCell>
        <mxCell id="qNYDKGZyeqneloQv9wIE-41" value="Actor" style="shape=umlActor;verticalLabelPosition=bottom;verticalAlign=top;html=1;" vertex="1" parent="1">
          <mxGeometry x="350" y="790" width="30" height="60" as="geometry" />
        </mxCell>
        <mxCell id="qNYDKGZyeqneloQv9wIE-42" value="Service" style="html=1;whiteSpace=wrap;" vertex="1" parent="1">
          <mxGeometry x="670" y="800" width="110" height="50" as="geometry" />
        </mxCell>
        <mxCell id="qNYDKGZyeqneloQv9wIE-43" value="Controller" style="html=1;whiteSpace=wrap;" vertex="1" parent="1">
          <mxGeometry x="460" y="800" width="110" height="50" as="geometry" />
        </mxCell>
        <mxCell id="qNYDKGZyeqneloQv9wIE-44" value="Database" style="html=1;whiteSpace=wrap;" vertex="1" parent="1">
          <mxGeometry x="890" y="795" width="110" height="50" as="geometry" />
        </mxCell>
        <mxCell id="qNYDKGZyeqneloQv9wIE-45" value="" style="endArrow=none;dashed=1;html=1;dashPattern=1 3;strokeWidth=2;rounded=0;exitX=0.115;exitY=1.003;exitDx=0;exitDy=0;exitPerimeter=0;" edge="1" parent="1" source="qNYDKGZyeqneloQv9wIE-59">
          <mxGeometry width="50" height="50" relative="1" as="geometry">
            <mxPoint x="370" y="1310" as="sourcePoint" />
            <mxPoint x="370" y="880" as="targetPoint" />
            <Array as="points">
              <mxPoint x="370" y="1000" />
            </Array>
          </mxGeometry>
        </mxCell>
        <mxCell id="qNYDKGZyeqneloQv9wIE-46" value="" style="endArrow=none;dashed=1;html=1;dashPattern=1 3;strokeWidth=2;rounded=0;exitX=0.314;exitY=1.01;exitDx=0;exitDy=0;exitPerimeter=0;" edge="1" parent="1" source="qNYDKGZyeqneloQv9wIE-59">
          <mxGeometry width="50" height="50" relative="1" as="geometry">
            <mxPoint x="510" y="1300" as="sourcePoint" />
            <mxPoint x="510" y="880" as="targetPoint" />
          </mxGeometry>
        </mxCell>
        <mxCell id="qNYDKGZyeqneloQv9wIE-47" value="" style="endArrow=none;dashed=1;html=1;dashPattern=1 3;strokeWidth=2;rounded=0;exitX=0.611;exitY=1.008;exitDx=0;exitDy=0;exitPerimeter=0;" edge="1" parent="1" source="qNYDKGZyeqneloQv9wIE-59">
          <mxGeometry width="50" height="50" relative="1" as="geometry">
            <mxPoint x="720" y="1300" as="sourcePoint" />
            <mxPoint x="720" y="870" as="targetPoint" />
          </mxGeometry>
        </mxCell>
        <mxCell id="qNYDKGZyeqneloQv9wIE-48" value="" style="endArrow=none;dashed=1;html=1;dashPattern=1 3;strokeWidth=2;rounded=0;" edge="1" parent="1">
          <mxGeometry width="50" height="50" relative="1" as="geometry">
            <mxPoint x="945" y="1440" as="sourcePoint" />
            <mxPoint x="940" y="860" as="targetPoint" />
          </mxGeometry>
        </mxCell>
        <mxCell id="qNYDKGZyeqneloQv9wIE-49" value="Register" style="text;html=1;align=center;verticalAlign=middle;whiteSpace=wrap;rounded=0;" vertex="1" parent="1">
          <mxGeometry x="250" y="770" width="60" height="30" as="geometry" />
        </mxCell>
        <mxCell id="qNYDKGZyeqneloQv9wIE-50" value="" style="endArrow=classic;html=1;rounded=0;" edge="1" parent="1">
          <mxGeometry width="50" height="50" relative="1" as="geometry">
            <mxPoint x="380" y="890" as="sourcePoint" />
            <mxPoint x="500" y="890" as="targetPoint" />
          </mxGeometry>
        </mxCell>
        <mxCell id="qNYDKGZyeqneloQv9wIE-51" value="register request" style="text;html=1;align=center;verticalAlign=middle;resizable=0;points=[];autosize=1;strokeColor=none;fillColor=none;" vertex="1" parent="1">
          <mxGeometry x="385" y="858" width="110" height="30" as="geometry" />
        </mxCell>
        <mxCell id="qNYDKGZyeqneloQv9wIE-52" value="" style="endArrow=classic;html=1;rounded=0;" edge="1" parent="1">
          <mxGeometry width="50" height="50" relative="1" as="geometry">
            <mxPoint x="620" y="1000" as="sourcePoint" />
            <mxPoint x="719" y="1000" as="targetPoint" />
            <Array as="points">
              <mxPoint x="680" y="1000" />
            </Array>
          </mxGeometry>
        </mxCell>
        <mxCell id="qNYDKGZyeqneloQv9wIE-53" value="call register function" style="text;html=1;align=center;verticalAlign=middle;resizable=0;points=[];autosize=1;strokeColor=none;fillColor=none;" vertex="1" parent="1">
          <mxGeometry x="605" y="970" width="130" height="30" as="geometry" />
        </mxCell>
        <mxCell id="qNYDKGZyeqneloQv9wIE-54" value="" style="endArrow=classic;html=1;rounded=0;" edge="1" parent="1">
          <mxGeometry width="50" height="50" relative="1" as="geometry">
            <mxPoint x="730" y="1010" as="sourcePoint" />
            <mxPoint x="930" y="1010" as="targetPoint" />
          </mxGeometry>
        </mxCell>
        <mxCell id="qNYDKGZyeqneloQv9wIE-55" value="check exist of username and pasword" style="text;html=1;align=center;verticalAlign=middle;resizable=0;points=[];autosize=1;strokeColor=none;fillColor=none;" vertex="1" parent="1">
          <mxGeometry x="725" y="980" width="220" height="30" as="geometry" />
        </mxCell>
        <mxCell id="qNYDKGZyeqneloQv9wIE-56" value="" style="html=1;verticalAlign=bottom;endArrow=open;dashed=1;endSize=8;curved=0;rounded=0;" edge="1" parent="1">
          <mxGeometry relative="1" as="geometry">
            <mxPoint x="940" y="1050" as="sourcePoint" />
            <mxPoint x="730" y="1050" as="targetPoint" />
          </mxGeometry>
        </mxCell>
        <mxCell id="qNYDKGZyeqneloQv9wIE-57" value="username or email exist&amp;nbsp;" style="html=1;verticalAlign=bottom;endArrow=open;dashed=1;endSize=8;curved=0;rounded=0;" edge="1" parent="1">
          <mxGeometry x="-0.0769" relative="1" as="geometry">
            <mxPoint x="500" y="1080" as="sourcePoint" />
            <mxPoint x="370" y="1080" as="targetPoint" />
            <mxPoint as="offset" />
          </mxGeometry>
        </mxCell>
        <mxCell id="qNYDKGZyeqneloQv9wIE-58" value="username or email existed" style="html=1;verticalAlign=bottom;endArrow=open;dashed=1;endSize=8;curved=0;rounded=0;" edge="1" parent="1">
          <mxGeometry relative="1" as="geometry">
            <mxPoint x="720" y="1060" as="sourcePoint" />
            <mxPoint x="510" y="1060" as="targetPoint" />
          </mxGeometry>
        </mxCell>
        <mxCell id="qNYDKGZyeqneloQv9wIE-59" value="alternative" style="shape=umlFrame;whiteSpace=wrap;html=1;pointerEvents=0;" vertex="1" parent="1">
          <mxGeometry x="280" y="1030" width="720" height="400" as="geometry" />
        </mxCell>
        <mxCell id="qNYDKGZyeqneloQv9wIE-60" value="" style="endArrow=none;dashed=1;html=1;rounded=0;exitX=0.006;exitY=0.21;exitDx=0;exitDy=0;exitPerimeter=0;entryX=0.996;entryY=0.208;entryDx=0;entryDy=0;entryPerimeter=0;" edge="1" parent="1" source="qNYDKGZyeqneloQv9wIE-59" target="qNYDKGZyeqneloQv9wIE-59">
          <mxGeometry width="50" height="50" relative="1" as="geometry">
            <mxPoint x="620" y="1060" as="sourcePoint" />
            <mxPoint x="670" y="1010" as="targetPoint" />
          </mxGeometry>
        </mxCell>
        <mxCell id="qNYDKGZyeqneloQv9wIE-61" value="existed&amp;nbsp;" style="text;html=1;align=center;verticalAlign=middle;resizable=0;points=[];autosize=1;strokeColor=none;fillColor=none;" vertex="1" parent="1">
          <mxGeometry x="290" y="1070" width="60" height="30" as="geometry" />
        </mxCell>
        <mxCell id="qNYDKGZyeqneloQv9wIE-62" value="unexisted" style="text;html=1;align=center;verticalAlign=middle;resizable=0;points=[];autosize=1;strokeColor=none;fillColor=none;" vertex="1" parent="1">
          <mxGeometry x="285" y="1150" width="70" height="30" as="geometry" />
        </mxCell>
        <mxCell id="qNYDKGZyeqneloQv9wIE-63" value="not exist" style="html=1;verticalAlign=bottom;endArrow=open;dashed=1;endSize=8;curved=0;rounded=0;" edge="1" parent="1">
          <mxGeometry relative="1" as="geometry">
            <mxPoint x="940" y="1142.5" as="sourcePoint" />
            <mxPoint x="720" y="1143" as="targetPoint" />
          </mxGeometry>
        </mxCell>
        <mxCell id="qNYDKGZyeqneloQv9wIE-64" value="" style="endArrow=none;dashed=1;html=1;dashPattern=1 3;strokeWidth=2;rounded=0;" edge="1" parent="1">
          <mxGeometry width="50" height="50" relative="1" as="geometry">
            <mxPoint x="620" y="1020" as="sourcePoint" />
            <mxPoint x="620" y="880" as="targetPoint" />
          </mxGeometry>
        </mxCell>
        <mxCell id="qNYDKGZyeqneloQv9wIE-65" value="" style="endArrow=classic;html=1;rounded=0;" edge="1" parent="1">
          <mxGeometry width="50" height="50" relative="1" as="geometry">
            <mxPoint x="510" y="900" as="sourcePoint" />
            <mxPoint x="600" y="900" as="targetPoint" />
          </mxGeometry>
        </mxCell>
        <mxCell id="qNYDKGZyeqneloQv9wIE-66" value="check input" style="text;html=1;align=center;verticalAlign=middle;resizable=0;points=[];autosize=1;strokeColor=none;fillColor=none;" vertex="1" parent="1">
          <mxGeometry x="520" y="870" width="80" height="30" as="geometry" />
        </mxCell>
        <mxCell id="qNYDKGZyeqneloQv9wIE-67" value="Uncorrect /not input" style="html=1;verticalAlign=bottom;endArrow=open;dashed=1;endSize=8;curved=0;rounded=0;" edge="1" parent="1">
          <mxGeometry relative="1" as="geometry">
            <mxPoint x="610" y="930" as="sourcePoint" />
            <mxPoint x="510" y="930" as="targetPoint" />
            <mxPoint as="offset" />
          </mxGeometry>
        </mxCell>
        <mxCell id="qNYDKGZyeqneloQv9wIE-68" value="please fill in" style="html=1;verticalAlign=bottom;endArrow=open;dashed=1;endSize=8;curved=0;rounded=0;" edge="1" parent="1">
          <mxGeometry relative="1" as="geometry">
            <mxPoint x="500" y="940" as="sourcePoint" />
            <mxPoint x="370" y="940" as="targetPoint" />
            <mxPoint as="offset" />
          </mxGeometry>
        </mxCell>
        <mxCell id="qNYDKGZyeqneloQv9wIE-69" value="alternative&lt;div&gt;&lt;br&gt;&lt;/div&gt;" style="shape=umlFrame;whiteSpace=wrap;html=1;pointerEvents=0;" vertex="1" parent="1">
          <mxGeometry x="280" y="910" width="720" height="110" as="geometry" />
        </mxCell>
        <mxCell id="qNYDKGZyeqneloQv9wIE-70" value="" style="endArrow=none;dashed=1;html=1;rounded=0;exitX=-0.003;exitY=0.545;exitDx=0;exitDy=0;exitPerimeter=0;entryX=0.999;entryY=0.518;entryDx=0;entryDy=0;entryPerimeter=0;" edge="1" parent="1" source="qNYDKGZyeqneloQv9wIE-69" target="qNYDKGZyeqneloQv9wIE-69">
          <mxGeometry width="50" height="50" relative="1" as="geometry">
            <mxPoint x="610" y="1060" as="sourcePoint" />
            <mxPoint x="660" y="1010" as="targetPoint" />
          </mxGeometry>
        </mxCell>
        <mxCell id="qNYDKGZyeqneloQv9wIE-71" value="uncorrect input" style="text;html=1;align=center;verticalAlign=middle;resizable=0;points=[];autosize=1;strokeColor=none;fillColor=none;" vertex="1" parent="1">
          <mxGeometry x="270" y="938" width="100" height="30" as="geometry" />
        </mxCell>
        <mxCell id="qNYDKGZyeqneloQv9wIE-72" value="correct input" style="text;html=1;align=center;verticalAlign=middle;resizable=0;points=[];autosize=1;strokeColor=none;fillColor=none;" vertex="1" parent="1">
          <mxGeometry x="275" y="978" width="90" height="30" as="geometry" />
        </mxCell>
        <mxCell id="qNYDKGZyeqneloQv9wIE-73" value="username or email existed" style="text;html=1;align=center;verticalAlign=middle;resizable=0;points=[];autosize=1;strokeColor=none;fillColor=none;" vertex="1" parent="1">
          <mxGeometry x="750" y="1030" width="160" height="30" as="geometry" />
        </mxCell>
        <mxCell id="qNYDKGZyeqneloQv9wIE-74" value="register fail" style="text;html=1;align=center;verticalAlign=middle;resizable=0;points=[];autosize=1;strokeColor=none;fillColor=none;" vertex="1" parent="1">
          <mxGeometry x="385" y="1078" width="80" height="30" as="geometry" />
        </mxCell>
        <mxCell id="qNYDKGZyeqneloQv9wIE-75" value="" style="endArrow=classic;html=1;rounded=0;" edge="1" parent="1">
          <mxGeometry width="50" height="50" relative="1" as="geometry">
            <mxPoint x="715" y="1180" as="sourcePoint" />
            <mxPoint x="935" y="1180" as="targetPoint" />
          </mxGeometry>
        </mxCell>
        <mxCell id="qNYDKGZyeqneloQv9wIE-76" value="insert new user" style="text;html=1;align=center;verticalAlign=middle;resizable=0;points=[];autosize=1;strokeColor=none;fillColor=none;" vertex="1" parent="1">
          <mxGeometry x="785" y="1158" width="100" height="30" as="geometry" />
        </mxCell>
        <mxCell id="qNYDKGZyeqneloQv9wIE-77" value="insert succesfull" style="html=1;verticalAlign=bottom;endArrow=open;dashed=1;endSize=8;curved=0;rounded=0;" edge="1" parent="1">
          <mxGeometry relative="1" as="geometry">
            <mxPoint x="935" y="1250" as="sourcePoint" />
            <mxPoint x="715" y="1250.5" as="targetPoint" />
          </mxGeometry>
        </mxCell>
        <mxCell id="qNYDKGZyeqneloQv9wIE-78" value="&amp;nbsp;insert succesfull" style="html=1;verticalAlign=bottom;endArrow=open;dashed=1;endSize=8;curved=0;rounded=0;" edge="1" parent="1">
          <mxGeometry relative="1" as="geometry">
            <mxPoint x="715" y="1290" as="sourcePoint" />
            <mxPoint x="510" y="1290.5" as="targetPoint" />
            <mxPoint as="offset" />
          </mxGeometry>
        </mxCell>
        <mxCell id="qNYDKGZyeqneloQv9wIE-79" value="&amp;nbsp;register succesfull" style="html=1;verticalAlign=bottom;endArrow=open;dashed=1;endSize=8;curved=0;rounded=0;" edge="1" parent="1">
          <mxGeometry relative="1" as="geometry">
            <mxPoint x="505" y="1320" as="sourcePoint" />
            <mxPoint x="365" y="1321" as="targetPoint" />
            <mxPoint as="offset" />
          </mxGeometry>
        </mxCell>
        <mxCell id="qNYDKGZyeqneloQv9wIE-80" value="Actor" style="shape=umlActor;verticalLabelPosition=bottom;verticalAlign=top;html=1;" vertex="1" parent="1">
          <mxGeometry x="370" y="1560" width="30" height="60" as="geometry" />
        </mxCell>
        <mxCell id="qNYDKGZyeqneloQv9wIE-81" value="Service" style="html=1;whiteSpace=wrap;" vertex="1" parent="1">
          <mxGeometry x="690" y="1570" width="110" height="50" as="geometry" />
        </mxCell>
        <mxCell id="qNYDKGZyeqneloQv9wIE-82" value="Controller" style="html=1;whiteSpace=wrap;" vertex="1" parent="1">
          <mxGeometry x="480" y="1570" width="110" height="50" as="geometry" />
        </mxCell>
        <mxCell id="qNYDKGZyeqneloQv9wIE-83" value="Database" style="html=1;whiteSpace=wrap;" vertex="1" parent="1">
          <mxGeometry x="910" y="1565" width="110" height="50" as="geometry" />
        </mxCell>
        <mxCell id="qNYDKGZyeqneloQv9wIE-84" value="" style="endArrow=none;dashed=1;html=1;dashPattern=1 3;strokeWidth=2;rounded=0;" edge="1" parent="1">
          <mxGeometry width="50" height="50" relative="1" as="geometry">
            <mxPoint x="395" y="2263" as="sourcePoint" />
            <mxPoint x="390" y="1650" as="targetPoint" />
            <Array as="points">
              <mxPoint x="390" y="1770" />
            </Array>
          </mxGeometry>
        </mxCell>
        <mxCell id="qNYDKGZyeqneloQv9wIE-85" value="" style="endArrow=none;dashed=1;html=1;dashPattern=1 3;strokeWidth=2;rounded=0;exitX=0.315;exitY=1;exitDx=0;exitDy=0;exitPerimeter=0;" edge="1" parent="1" source="qNYDKGZyeqneloQv9wIE-97">
          <mxGeometry width="50" height="50" relative="1" as="geometry">
            <mxPoint x="526.0799999999999" y="2201.6" as="sourcePoint" />
            <mxPoint x="530" y="1650" as="targetPoint" />
          </mxGeometry>
        </mxCell>
        <mxCell id="qNYDKGZyeqneloQv9wIE-86" value="" style="endArrow=none;dashed=1;html=1;dashPattern=1 3;strokeWidth=2;rounded=0;exitX=0.611;exitY=1.017;exitDx=0;exitDy=0;exitPerimeter=0;" edge="1" parent="1" source="qNYDKGZyeqneloQv9wIE-97">
          <mxGeometry width="50" height="50" relative="1" as="geometry">
            <mxPoint x="739.9200000000001" y="2201.28" as="sourcePoint" />
            <mxPoint x="740" y="1640" as="targetPoint" />
          </mxGeometry>
        </mxCell>
        <mxCell id="qNYDKGZyeqneloQv9wIE-87" value="" style="endArrow=none;dashed=1;html=1;dashPattern=1 3;strokeWidth=2;rounded=0;exitX=0.922;exitY=1.003;exitDx=0;exitDy=0;exitPerimeter=0;" edge="1" parent="1" source="qNYDKGZyeqneloQv9wIE-97">
          <mxGeometry width="50" height="50" relative="1" as="geometry">
            <mxPoint x="965" y="2210" as="sourcePoint" />
            <mxPoint x="960" y="1630" as="targetPoint" />
          </mxGeometry>
        </mxCell>
        <mxCell id="qNYDKGZyeqneloQv9wIE-88" value="" style="endArrow=classic;html=1;rounded=0;" edge="1" parent="1">
          <mxGeometry width="50" height="50" relative="1" as="geometry">
            <mxPoint x="400" y="1660" as="sourcePoint" />
            <mxPoint x="520" y="1660" as="targetPoint" />
          </mxGeometry>
        </mxCell>
        <mxCell id="qNYDKGZyeqneloQv9wIE-89" value="Create CV request" style="text;html=1;align=center;verticalAlign=middle;resizable=0;points=[];autosize=1;strokeColor=none;fillColor=none;" vertex="1" parent="1">
          <mxGeometry x="400" y="1628" width="120" height="30" as="geometry" />
        </mxCell>
        <mxCell id="qNYDKGZyeqneloQv9wIE-90" value="" style="endArrow=classic;html=1;rounded=0;" edge="1" parent="1">
          <mxGeometry width="50" height="50" relative="1" as="geometry">
            <mxPoint x="640.5" y="1880" as="sourcePoint" />
            <mxPoint x="739.5" y="1880" as="targetPoint" />
            <Array as="points">
              <mxPoint x="700.5" y="1880" />
            </Array>
          </mxGeometry>
        </mxCell>
        <mxCell id="qNYDKGZyeqneloQv9wIE-91" value="call&amp;nbsp;&lt;div&gt;Create CV function&lt;/div&gt;" style="text;html=1;align=center;verticalAlign=middle;resizable=0;points=[];autosize=1;strokeColor=none;fillColor=none;" vertex="1" parent="1">
          <mxGeometry x="630" y="1840" width="120" height="40" as="geometry" />
        </mxCell>
        <mxCell id="qNYDKGZyeqneloQv9wIE-92" value="" style="endArrow=none;dashed=1;html=1;dashPattern=1 3;strokeWidth=2;rounded=0;" edge="1" parent="1">
          <mxGeometry width="50" height="50" relative="1" as="geometry">
            <mxPoint x="635" y="1890" as="sourcePoint" />
            <mxPoint x="635" y="1660" as="targetPoint" />
          </mxGeometry>
        </mxCell>
        <mxCell id="qNYDKGZyeqneloQv9wIE-93" value="" style="endArrow=classic;html=1;rounded=0;" edge="1" parent="1">
          <mxGeometry width="50" height="50" relative="1" as="geometry">
            <mxPoint x="530" y="1670" as="sourcePoint" />
            <mxPoint x="620" y="1670" as="targetPoint" />
          </mxGeometry>
        </mxCell>
        <mxCell id="qNYDKGZyeqneloQv9wIE-94" value="check input" style="text;html=1;align=center;verticalAlign=middle;resizable=0;points=[];autosize=1;strokeColor=none;fillColor=none;" vertex="1" parent="1">
          <mxGeometry x="540" y="1640" width="80" height="30" as="geometry" />
        </mxCell>
        <mxCell id="qNYDKGZyeqneloQv9wIE-95" value="Uncorrect /not input" style="html=1;verticalAlign=bottom;endArrow=open;dashed=1;endSize=8;curved=0;rounded=0;" edge="1" parent="1">
          <mxGeometry relative="1" as="geometry">
            <mxPoint x="630" y="1722.5" as="sourcePoint" />
            <mxPoint x="530" y="1722.5" as="targetPoint" />
            <mxPoint as="offset" />
          </mxGeometry>
        </mxCell>
        <mxCell id="qNYDKGZyeqneloQv9wIE-96" value="please fill in&amp;nbsp;" style="html=1;verticalAlign=bottom;endArrow=open;dashed=1;endSize=8;curved=0;rounded=0;" edge="1" parent="1">
          <mxGeometry relative="1" as="geometry">
            <mxPoint x="525" y="1748" as="sourcePoint" />
            <mxPoint x="395" y="1748" as="targetPoint" />
            <mxPoint as="offset" />
          </mxGeometry>
        </mxCell>
        <mxCell id="qNYDKGZyeqneloQv9wIE-97" value="alternative&lt;div&gt;&lt;br&gt;&lt;/div&gt;" style="shape=umlFrame;whiteSpace=wrap;html=1;pointerEvents=0;" vertex="1" parent="1">
          <mxGeometry x="300" y="1680" width="720" height="580" as="geometry" />
        </mxCell>
        <mxCell id="qNYDKGZyeqneloQv9wIE-98" value="" style="endArrow=none;dashed=1;html=1;rounded=0;exitX=0.004;exitY=0.217;exitDx=0;exitDy=0;exitPerimeter=0;" edge="1" parent="1" source="qNYDKGZyeqneloQv9wIE-97">
          <mxGeometry width="50" height="50" relative="1" as="geometry">
            <mxPoint x="630" y="1830" as="sourcePoint" />
            <mxPoint x="1021" y="1810" as="targetPoint" />
          </mxGeometry>
        </mxCell>
        <mxCell id="qNYDKGZyeqneloQv9wIE-99" value="uncorrect input" style="text;html=1;align=center;verticalAlign=middle;resizable=0;points=[];autosize=1;strokeColor=none;fillColor=none;" vertex="1" parent="1">
          <mxGeometry x="290" y="1708" width="100" height="30" as="geometry" />
        </mxCell>
        <mxCell id="qNYDKGZyeqneloQv9wIE-100" value="correct input" style="text;html=1;align=center;verticalAlign=middle;resizable=0;points=[];autosize=1;strokeColor=none;fillColor=none;" vertex="1" parent="1">
          <mxGeometry x="295" y="1850" width="90" height="30" as="geometry" />
        </mxCell>
        <mxCell id="qNYDKGZyeqneloQv9wIE-101" value="or uncorrect iinput" style="text;html=1;align=center;verticalAlign=middle;resizable=0;points=[];autosize=1;strokeColor=none;fillColor=none;" vertex="1" parent="1">
          <mxGeometry x="400" y="1748" width="120" height="30" as="geometry" />
        </mxCell>
        <mxCell id="qNYDKGZyeqneloQv9wIE-102" value="Create Form CV" style="html=1;verticalAlign=bottom;endArrow=open;dashed=1;endSize=8;curved=0;rounded=0;" edge="1" parent="1">
          <mxGeometry x="-0.0123" relative="1" as="geometry">
            <mxPoint x="735" y="1950" as="sourcePoint" />
            <mxPoint x="529" y="1950" as="targetPoint" />
            <mxPoint as="offset" />
          </mxGeometry>
        </mxCell>
        <mxCell id="qNYDKGZyeqneloQv9wIE-103" value="" style="endArrow=classic;html=1;rounded=0;" edge="1" parent="1">
          <mxGeometry width="50" height="50" relative="1" as="geometry">
            <mxPoint x="745" y="1900" as="sourcePoint" />
            <mxPoint x="965" y="1900" as="targetPoint" />
          </mxGeometry>
        </mxCell>
        <mxCell id="qNYDKGZyeqneloQv9wIE-104" value="select CV sample form &#39;s code" style="text;html=1;align=center;verticalAlign=middle;resizable=0;points=[];autosize=1;strokeColor=none;fillColor=none;" vertex="1" parent="1">
          <mxGeometry x="755" y="1868" width="190" height="30" as="geometry" />
        </mxCell>
        <mxCell id="qNYDKGZyeqneloQv9wIE-105" value="return CV sample form&#39;s code" style="html=1;verticalAlign=bottom;endArrow=open;dashed=1;endSize=8;curved=0;rounded=0;" edge="1" parent="1">
          <mxGeometry x="-0.0123" relative="1" as="geometry">
            <mxPoint x="957.5" y="1930" as="sourcePoint" />
            <mxPoint x="745" y="1930" as="targetPoint" />
            <mxPoint as="offset" />
          </mxGeometry>
        </mxCell>
        <mxCell id="qNYDKGZyeqneloQv9wIE-106" value="Create CV succes full&amp;nbsp;" style="html=1;verticalAlign=bottom;endArrow=open;dashed=1;endSize=8;curved=0;rounded=0;" edge="1" parent="1">
          <mxGeometry relative="1" as="geometry">
            <mxPoint x="525" y="1970" as="sourcePoint" />
            <mxPoint x="395" y="1970" as="targetPoint" />
            <mxPoint as="offset" />
          </mxGeometry>
        </mxCell>
        <mxCell id="qNYDKGZyeqneloQv9wIE-107" value="" style="endArrow=classic;html=1;rounded=0;" edge="1" parent="1">
          <mxGeometry width="50" height="50" relative="1" as="geometry">
            <mxPoint x="395" y="2050" as="sourcePoint" />
            <mxPoint x="525" y="2050" as="targetPoint" />
          </mxGeometry>
        </mxCell>
        <mxCell id="qNYDKGZyeqneloQv9wIE-108" value="Save CV request" style="text;html=1;align=center;verticalAlign=middle;resizable=0;points=[];autosize=1;strokeColor=none;fillColor=none;" vertex="1" parent="1">
          <mxGeometry x="400" y="2018" width="110" height="30" as="geometry" />
        </mxCell>
        <mxCell id="qNYDKGZyeqneloQv9wIE-109" value="" style="endArrow=classic;html=1;rounded=0;" edge="1" parent="1">
          <mxGeometry width="50" height="50" relative="1" as="geometry">
            <mxPoint x="525" y="2070" as="sourcePoint" />
            <mxPoint x="745" y="2070" as="targetPoint" />
          </mxGeometry>
        </mxCell>
        <mxCell id="qNYDKGZyeqneloQv9wIE-110" value="call save CV function" style="text;html=1;align=center;verticalAlign=middle;resizable=0;points=[];autosize=1;strokeColor=none;fillColor=none;" vertex="1" parent="1">
          <mxGeometry x="570" y="2038" width="140" height="30" as="geometry" />
        </mxCell>
        <mxCell id="qNYDKGZyeqneloQv9wIE-111" value="" style="endArrow=classic;html=1;rounded=0;" edge="1" parent="1">
          <mxGeometry width="50" height="50" relative="1" as="geometry">
            <mxPoint x="745" y="2110" as="sourcePoint" />
            <mxPoint x="965" y="2110" as="targetPoint" />
          </mxGeometry>
        </mxCell>
        <mxCell id="qNYDKGZyeqneloQv9wIE-112" value="Insert new CV" style="text;html=1;align=center;verticalAlign=middle;resizable=0;points=[];autosize=1;strokeColor=none;fillColor=none;" vertex="1" parent="1">
          <mxGeometry x="785" y="2078" width="100" height="30" as="geometry" />
        </mxCell>
        <mxCell id="qNYDKGZyeqneloQv9wIE-113" value="insert successfull" style="html=1;verticalAlign=bottom;endArrow=open;dashed=1;endSize=8;curved=0;rounded=0;" edge="1" parent="1">
          <mxGeometry x="-0.0123" relative="1" as="geometry">
            <mxPoint x="956.25" y="2150" as="sourcePoint" />
            <mxPoint x="743.75" y="2150" as="targetPoint" />
            <mxPoint as="offset" />
          </mxGeometry>
        </mxCell>
        <mxCell id="qNYDKGZyeqneloQv9wIE-114" value="save succesfull" style="html=1;verticalAlign=bottom;endArrow=open;dashed=1;endSize=8;curved=0;rounded=0;" edge="1" parent="1">
          <mxGeometry x="-0.0123" relative="1" as="geometry">
            <mxPoint x="735" y="2180" as="sourcePoint" />
            <mxPoint x="522.5" y="2180" as="targetPoint" />
            <mxPoint as="offset" />
          </mxGeometry>
        </mxCell>
        <mxCell id="qNYDKGZyeqneloQv9wIE-115" value="save succesfull" style="html=1;verticalAlign=bottom;endArrow=open;dashed=1;endSize=8;curved=0;rounded=0;" edge="1" parent="1">
          <mxGeometry x="-0.0123" relative="1" as="geometry">
            <mxPoint x="526.25" y="2200" as="sourcePoint" />
            <mxPoint x="393.75" y="2200" as="targetPoint" />
            <mxPoint as="offset" />
          </mxGeometry>
        </mxCell>
      </root>
    </mxGraphModel>
  </diagram>
</mxfile>
